<svg width="142" height="142" viewBox="0 0 142 142" fill="none" xmlns="http://www.w3.org/2000/svg">
<circle cx="70.8662" cy="70.8662" r="70.8662" fill="white"/>
<path d="M92.4446 104.999C92.4446 106.059 92.2506 106.971 91.8626 107.734C91.4746 108.494 90.9428 109.079 90.267 109.49C89.5945 109.897 88.8299 110.101 87.9731 110.101C87.113 110.101 86.3452 109.897 85.6694 109.49C84.9969 109.079 84.4667 108.492 84.0787 107.729C83.6907 106.966 83.4967 106.056 83.4967 104.999C83.4967 103.938 83.6907 103.028 84.0787 102.268C84.4667 101.505 84.9969 100.92 85.6694 100.513C86.3452 100.102 87.113 99.8966 87.9731 99.8966C88.8299 99.8966 89.5945 100.102 90.267 100.513C90.9428 100.92 91.4746 101.505 91.8626 102.268C92.2506 103.028 92.4446 103.938 92.4446 104.999ZM90.9606 104.999C90.9606 104.19 90.8296 103.51 90.5677 102.957C90.3091 102.401 89.9534 101.98 89.5008 101.696C89.0514 101.408 88.5421 101.264 87.9731 101.264C87.4008 101.264 86.89 101.408 86.4405 101.696C85.9911 101.98 85.6355 102.401 85.3736 102.957C85.1149 103.51 84.9856 104.19 84.9856 104.999C84.9856 105.807 85.1149 106.489 85.3736 107.045C85.6355 107.598 85.9911 108.018 86.4405 108.306C86.89 108.591 87.4008 108.733 87.9731 108.733C88.5421 108.733 89.0514 108.591 89.5008 108.306C89.9534 108.018 90.3091 107.598 90.5677 107.045C90.8296 106.489 90.9606 105.807 90.9606 104.999ZM101.383 100.032H102.886V106.565C102.886 107.26 102.723 107.876 102.397 108.413C102.07 108.946 101.611 109.367 101.019 109.674C100.428 109.978 99.7341 110.13 98.9387 110.13C98.1466 110.13 97.4547 109.978 96.863 109.674C96.2713 109.367 95.8122 108.946 95.4857 108.413C95.1591 107.876 94.9958 107.26 94.9958 106.565V100.032H96.4944V106.444C96.4944 106.893 96.593 107.293 96.7903 107.642C96.9907 107.991 97.2736 108.266 97.639 108.466C98.0043 108.663 98.4376 108.762 98.9387 108.762C99.4431 108.762 99.878 108.663 100.243 108.466C100.612 108.266 100.893 107.991 101.087 107.642C101.284 107.293 101.383 106.893 101.383 106.444V100.032ZM105.748 109.965V100.032H109.288C110.058 100.032 110.697 100.165 111.204 100.43C111.715 100.695 112.097 101.062 112.349 101.531C112.601 101.997 112.727 102.535 112.727 103.146C112.727 103.754 112.599 104.289 112.344 104.751C112.092 105.21 111.71 105.568 111.199 105.823C110.692 106.079 110.053 106.206 109.284 106.206H106.602V104.916H109.148C109.633 104.916 110.027 104.847 110.331 104.708C110.638 104.569 110.863 104.367 111.005 104.101C111.148 103.836 111.219 103.518 111.219 103.146C111.219 102.771 111.146 102.446 111 102.171C110.858 101.896 110.633 101.686 110.326 101.541C110.022 101.392 109.623 101.318 109.128 101.318H107.247V109.965H105.748ZM110.651 105.484L113.105 109.965H111.398L108.993 105.484H110.651Z" fill="#59158F"/>
<path d="M75.5225 91.251V89.9609H83.2094V91.251H80.1104V110.136H78.6166V91.251H75.5225Z" fill="#59158F"/>
<path d="M26.5898 89.7942V99.7266H25.0912V89.7942H26.5898ZM37.4718 89.7942V99.7266H36.0945L31.0458 92.4422H30.9537V99.7266H29.4551V89.7942H30.8421L35.8956 97.0883H35.9878V89.7942H37.4718ZM45.7579 92.4034C45.7062 91.9442 45.4928 91.5886 45.1178 91.3364C44.7427 91.081 44.2707 90.9533 43.7016 90.9533C43.2942 90.9533 42.9418 91.0179 42.6444 91.1473C42.3469 91.2733 42.1157 91.4479 41.9508 91.671C41.7892 91.8909 41.7083 92.1415 41.7083 92.4228C41.7083 92.6588 41.7633 92.8625 41.8732 93.0338C41.9864 93.2052 42.1335 93.3491 42.3146 93.4655C42.4989 93.5786 42.6961 93.674 42.9062 93.7516C43.1164 93.826 43.3185 93.8874 43.5125 93.9359L44.4824 94.1881C44.7993 94.2657 45.1242 94.3708 45.4572 94.5033C45.7903 94.6359 46.099 94.8105 46.3836 95.0271C46.6681 95.2437 46.8976 95.5121 47.0722 95.8322C47.2501 96.1523 47.339 96.5354 47.339 96.9816C47.339 97.5441 47.1935 98.0437 46.9025 98.4802C46.6147 98.9166 46.196 99.261 45.6464 99.5132C45.1 99.7654 44.4388 99.8915 43.6628 99.8915C42.9192 99.8915 42.2758 99.7734 41.7326 99.5374C41.1894 99.3014 40.7643 98.9668 40.4571 98.5335C40.1499 98.097 39.9802 97.5797 39.9479 96.9816H41.4513C41.4804 97.3405 41.5968 97.6395 41.8005 97.8788C42.0074 98.1148 42.2709 98.291 42.591 98.4074C42.9143 98.5206 43.2684 98.5772 43.6531 98.5772C44.0767 98.5772 44.4533 98.5109 44.7831 98.3783C45.1161 98.2425 45.378 98.055 45.5688 97.8157C45.7596 97.5732 45.8549 97.2903 45.8549 96.967C45.8549 96.6728 45.7709 96.4319 45.6027 96.2444C45.4378 96.0569 45.2131 95.9017 44.9286 95.7788C44.6473 95.656 44.3289 95.5476 43.9732 95.4539L42.7996 95.1338C42.0042 94.9172 41.3737 94.5987 40.9081 94.1784C40.4458 93.7581 40.2146 93.202 40.2146 92.51C40.2146 91.9378 40.3698 91.4382 40.6802 91.0115C40.9906 90.5847 41.4109 90.2533 41.9411 90.0172C42.4714 89.778 43.0695 89.6584 43.7356 89.6584C44.4081 89.6584 45.0014 89.7764 45.5154 90.0124C46.0328 90.2484 46.4401 90.5734 46.7376 90.9872C47.0351 91.3978 47.1902 91.8699 47.2032 92.4034H45.7579ZM51.3112 89.7942V99.7266H49.8126V89.7942H51.3112ZM60.8983 92.932C60.8045 92.6378 60.6785 92.3743 60.52 92.1415C60.3648 91.9054 60.1789 91.705 59.9623 91.5401C59.7457 91.372 59.4983 91.2442 59.2203 91.157C58.9455 91.0697 58.6431 91.026 58.3134 91.026C57.754 91.026 57.2496 91.1699 56.8002 91.4576C56.3508 91.7454 55.9952 92.1673 55.7333 92.7234C55.4746 93.2763 55.3453 93.9537 55.3453 94.7555C55.3453 95.5606 55.4762 96.2412 55.7381 96.7973C56 97.3534 56.3589 97.7753 56.8148 98.0631C57.2707 98.3508 57.7896 98.4947 58.3716 98.4947C58.9115 98.4947 59.3819 98.3848 59.7829 98.1649C60.187 97.9451 60.499 97.6347 60.7189 97.2338C60.942 96.8296 61.0535 96.3543 61.0535 95.8079L61.4415 95.8807H58.5995V94.644H62.5036V95.774C62.5036 96.6081 62.3258 97.3324 61.9701 97.9467C61.6177 98.5578 61.1295 99.0298 60.5055 99.3628C59.8847 99.6958 59.1734 99.8624 58.3716 99.8624C57.4727 99.8624 56.6838 99.6554 56.0049 99.2416C55.3291 98.8277 54.8021 98.2409 54.4238 97.4811C54.0455 96.7181 53.8564 95.8128 53.8564 94.7652C53.8564 93.9731 53.9663 93.2618 54.1862 92.6313C54.406 92.0008 54.7148 91.4657 55.1125 91.026C55.5134 90.5831 55.9838 90.2452 56.5238 90.0124C57.067 89.7764 57.6603 89.6584 58.3037 89.6584C58.8404 89.6584 59.3399 89.7376 59.8023 89.896C60.2678 90.0544 60.6817 90.2791 61.0438 90.5701C61.4092 90.8611 61.7115 91.2071 61.9507 91.608C62.19 92.0057 62.3516 92.447 62.4357 92.932H60.8983ZM65.0888 99.7266V89.7942H66.5874V94.1105H71.539V89.7942H73.0425V99.7266H71.539V95.3957H66.5874V99.7266H65.0888Z" fill="#E64A7D"/>
<path d="M47.5918 61.4858H54.2813V51.9732H58.0864V48.5978H62.0755V57.6808H64.7759V61.4858H68.5809V43.5039H73.552V61.4858H77.6639V51.9732H81.3462V61.4858H88.7109" stroke="#E64A7D" stroke-width="0.780403"/>
<rect x="37.9445" y="45.5871" width="10.2167" height="28.186" rx="5.10837" stroke="#59158F" stroke-width="1.46326"/>
<rect x="89.1779" y="45.5871" width="10.2167" height="28.186" rx="5.10837" stroke="#59158F" stroke-width="1.46326"/>
<path d="M37.9617 49.7969H34.5176V68.9641H37.9617" stroke="#59158F" stroke-width="1.46326"/>
<path d="M99.8264 49.9492H103.271V69.1164H99.8264" stroke="#59158F" stroke-width="1.46326"/>
<path d="M45 46.0553C46.8468 39.0815 54.1344 25.0082 68.5097 24.5048C82.8851 24.0015 90.7716 38.662 92.9179 46.0553" stroke="#59158F" stroke-width="1.46326"/>
<path d="M40.8066 46.0549C42.8899 39.047 49.3648 19.9991 68.6769 20C89.9165 20.0009 94.6892 38.626 97.1102 46.0554" stroke="#59158F" stroke-width="1.46326"/>
</svg>
