<svg width="540" height="540" viewBox="0 0 540 540" fill="none" xmlns="http://www.w3.org/2000/svg">
<g clip-path="url(#clip0_6_31)">
<path fill-rule="evenodd" clip-rule="evenodd" d="M270.006 191.25C304.179 191.25 331.881 163.548 331.881 129.375C331.881 95.2023 304.179 67.5 270.006 67.5C235.833 67.5 208.131 95.2023 208.131 129.375C208.131 163.548 235.833 191.25 270.006 191.25ZM270.006 168.75C291.752 168.75 309.381 151.121 309.381 129.375C309.381 107.629 291.752 90 270.006 90C248.259 90 230.631 107.629 230.631 129.375C230.631 151.121 248.259 168.75 270.006 168.75ZM202.506 325.579C202.506 326.949 202.629 328.431 202.876 329.997C182.025 347.892 168.756 374.092 168.756 403.392C168.756 414.155 170.885 430.266 177.042 444.122C183.132 457.829 194.839 472.5 215.006 472.5C234.637 472.5 251.255 457.052 251.255 437.142C251.255 428.672 247.851 421.353 245.545 416.393L245.214 415.681C242.558 409.947 241.255 406.702 241.255 403.392C241.255 400.141 243.122 394.712 247.177 388.5C249.534 384.889 252.215 381.652 254.76 379.106C260.032 381.142 265.209 382.5 270.006 382.5C274.804 382.5 279.98 381.143 285.252 379.107C287.796 381.652 290.477 384.891 292.834 388.5C296.89 394.712 298.755 400.141 298.755 403.392C298.755 406.611 297.447 409.923 294.776 415.757L294.426 416.52C292.14 421.488 288.756 428.848 288.756 437.142C288.756 457.052 305.375 472.5 325.006 472.5C345.105 472.5 356.7 456.879 362.687 443.372C368.866 429.426 371.256 413.372 371.256 403.392C371.256 374.093 357.986 347.893 337.137 329.999C337.383 328.433 337.506 326.949 337.506 325.579V267.762C341.963 266.886 346.483 265.926 351.074 264.887C360.435 262.77 370.106 260.318 380.201 257.543C398.174 252.603 408.738 234.029 403.798 216.055C398.859 198.082 380.284 187.517 362.311 192.457C324.466 202.859 296.85 207.276 270.146 207.162C243.332 207.05 215.577 202.366 177.3 192.349C159.267 187.631 140.824 198.424 136.105 216.457C131.386 234.488 142.179 252.933 160.211 257.651C175.096 261.546 189.072 264.843 202.506 267.466V325.579ZM371.566 236.577C372.453 236.337 373.342 236.094 374.237 235.848C380.227 234.201 383.75 228.009 382.103 222.019C380.457 216.028 374.265 212.506 368.274 214.153C329.297 224.865 299.522 229.787 270.051 229.662C240.543 229.537 210.723 224.353 171.603 214.117C165.592 212.544 159.445 216.142 157.872 222.153C156.299 228.164 159.896 234.31 165.907 235.883C183.879 240.587 200.213 244.324 215.692 247.028C221.077 247.968 225.006 252.642 225.006 258.11V292.5H315.006V258.409C315.006 252.939 318.94 248.263 324.327 247.326C339.054 244.763 354.575 241.183 371.566 236.577ZM191.256 403.392C191.256 383.526 199.254 365.373 212.464 351.821C216.977 357.92 223.269 363.863 231.732 368.323C232.296 368.62 232.869 368.911 233.453 369.195C231.627 371.44 229.905 373.798 228.337 376.199C223.371 383.805 218.755 393.686 218.755 403.392C218.755 412.118 222.206 419.551 224.553 424.61L224.796 425.135C227.502 430.976 228.755 434.06 228.755 437.142C228.755 443.862 222.989 450 215.006 450C208.019 450 202.226 445.386 197.604 434.986C193.049 424.735 191.256 411.917 191.256 403.392ZM311.674 376.199C310.106 373.798 308.384 371.44 306.558 369.195C315.895 364.656 322.734 358.327 327.547 351.822C340.757 365.374 348.756 383.526 348.756 403.392C348.756 410.723 346.839 423.597 342.116 434.254C337.201 445.347 331.295 450 325.006 450C317.023 450 311.256 443.862 311.256 437.142C311.256 434.199 312.506 431.084 315.235 425.121L315.482 424.584C317.816 419.496 321.255 411.996 321.255 403.392C321.255 393.686 316.64 383.805 311.674 376.199ZM294.114 352.718C309.867 346.726 315 334.222 315 329.354V314.438H225V329.354C225 334.222 230.133 346.726 245.886 352.718C247.688 353.403 249.714 354.263 251.534 355.035L252.606 355.489C254.844 356.434 257.01 357.327 259.2 358.12C263.768 359.773 267.33 360.562 270 360.562C272.67 360.562 276.232 359.773 280.8 358.12C282.99 357.327 285.156 356.434 287.394 355.489L288.465 355.035M294.114 352.718C292.312 353.403 290.286 354.263 288.465 355.035L294.114 352.718Z" fill="#6D309D"/>
</g>
<defs>
<clipPath id="clip0_6_31">
<rect width="540" height="540" fill="white"/>
</clipPath>
</defs>
</svg>
