<svg width="578" height="578" viewBox="0 0 578 578" fill="none" xmlns="http://www.w3.org/2000/svg">
<g clip-path="url(#clip0_2_28)">
<path fill-rule="evenodd" clip-rule="evenodd" d="M168.583 360.369C114.396 352.381 72.25 291.128 72.25 216.75C72.25 136.945 120.771 72.25 180.625 72.25C240.479 72.25 289 136.945 289 216.75C289 291.128 246.854 352.381 192.667 360.369V445.542H385.333V361.8H328.409C306.645 361.8 289 344.157 289 322.392C289 306.983 297.843 293.64 310.732 287.16C309.413 282.713 308.705 278.005 308.705 273.13C308.705 252.351 321.57 234.578 339.769 227.339C338.783 223.056 338.261 218.597 338.261 214.015C338.261 181.367 364.726 154.902 397.375 154.902C430.022 154.902 456.488 181.367 456.488 214.015C456.488 218.596 455.967 223.056 454.981 227.338C473.181 234.576 486.046 252.351 486.046 273.13C486.046 278.005 485.338 282.714 484.018 287.16C496.907 293.64 505.75 306.983 505.75 322.392C505.75 344.157 488.107 361.8 466.341 361.8H409.417V445.542H475.646C492.272 445.542 505.75 459.02 505.75 475.646C505.75 492.272 492.272 505.75 475.646 505.75H102.354C85.7281 505.75 72.25 492.272 72.25 475.646C72.25 459.02 85.7281 445.542 102.354 445.542H168.583V360.369ZM264.917 216.75C264.917 251.945 254.188 282.882 237.992 304.477C224.96 321.852 209.118 332.434 192.667 335.903V295.021H168.583V335.903C152.132 332.434 136.29 321.852 123.259 304.477C107.063 282.882 96.3333 251.945 96.3333 216.75C96.3333 181.555 107.063 150.618 123.259 129.023C139.45 107.436 159.978 96.3333 180.625 96.3333C201.272 96.3333 221.8 107.436 237.992 129.023C254.188 150.618 264.917 181.555 264.917 216.75ZM431.512 221.933L426.871 242.077L446.08 249.716C455.425 253.434 461.963 262.547 461.963 273.13C461.963 275.661 461.597 278.065 460.93 280.312L455.202 299.628L473.201 308.677C478.272 311.227 481.667 316.435 481.667 322.392C481.667 330.856 474.805 337.717 466.341 337.717H409.417V307.063H385.333V337.717H328.409C319.945 337.717 313.083 330.856 313.083 322.392C313.083 316.435 316.478 311.227 321.549 308.677L339.55 299.628L333.822 280.312C333.154 278.065 332.788 275.661 332.788 273.13C332.788 262.548 339.325 253.434 348.67 249.718L367.878 242.077L363.237 221.933C362.656 219.411 362.345 216.764 362.345 214.015C362.345 194.668 378.028 178.985 397.375 178.985C416.721 178.985 432.404 194.668 432.404 214.015C432.404 216.764 432.092 219.411 431.512 221.933ZM96.3333 475.646C96.3333 472.321 99.029 469.625 102.354 469.625H475.646C478.971 469.625 481.667 472.321 481.667 475.646C481.667 478.971 478.971 481.667 475.646 481.667H102.354C99.029 481.667 96.3333 478.971 96.3333 475.646Z" fill="#6D309D"/>
</g>
<defs>
<clipPath id="clip0_2_28">
<rect width="578" height="578" fill="white"/>
</clipPath>
</defs>
</svg>
