<svg width="557" height="557" viewBox="0 0 557 557" fill="none" xmlns="http://www.w3.org/2000/svg">
<g clip-path="url(#clip0_6_48)">
<path fill-rule="evenodd" clip-rule="evenodd" d="M116.042 394.542H232.083V417.75H116.042V394.542Z" fill="#6D309D"/>
<path fill-rule="evenodd" clip-rule="evenodd" d="M324.917 394.542H371.333V417.75H324.917V394.542Z" fill="#6D309D"/>
<path fill-rule="evenodd" clip-rule="evenodd" d="M255.292 394.542H301.708V417.75H255.292V394.542Z" fill="#6D309D"/>
<path fill-rule="evenodd" clip-rule="evenodd" d="M394.542 394.542H440.958V417.75H394.542V394.542Z" fill="#6D309D"/>
<path fill-rule="evenodd" clip-rule="evenodd" d="M195.28 324.917H250.088C262.23 324.917 273.889 320.159 282.563 311.665L324.917 270.194V264.905C324.917 252.595 329.807 240.788 338.512 232.083L358.113 212.483L327.873 192.323L195.28 324.917ZM139.25 348.125L324.917 162.458L394.542 208.875L354.923 248.494C350.57 252.847 348.125 258.75 348.125 264.905V270.194C348.125 276.433 345.613 282.411 341.154 286.776L298.8 328.248C285.787 340.99 268.301 348.125 250.088 348.125H139.25Z" fill="#6D309D"/>
<path fill-rule="evenodd" clip-rule="evenodd" d="M309.914 247.086C314.445 251.618 314.445 258.966 309.914 263.497L275.101 298.309C270.57 302.841 263.222 302.841 258.691 298.309C254.159 293.778 254.159 286.43 258.691 281.899L293.503 247.086C298.034 242.555 305.382 242.555 309.914 247.086Z" fill="#6D309D"/>
<path fill-rule="evenodd" clip-rule="evenodd" d="M425.955 94.0808L337.768 182.268L321.358 165.857L409.545 77.6699L425.955 94.0808Z" fill="#6D309D"/>
<path fill-rule="evenodd" clip-rule="evenodd" d="M443.362 143.805C447.893 148.336 447.893 155.684 443.362 160.215L379.539 224.038L363.128 207.628L426.951 143.805C431.482 139.273 438.83 139.273 443.362 143.805Z" fill="#6D309D"/>
</g>
<defs>
<clipPath id="clip0_6_48">
<rect width="557" height="557" fill="white"/>
</clipPath>
</defs>
</svg>
