<svg width="582" height="582" viewBox="0 0 582 582" fill="none" xmlns="http://www.w3.org/2000/svg">
<g clip-path="url(#clip0_6_34)">
<path fill-rule="evenodd" clip-rule="evenodd" d="M285.655 134.9C288.072 133.002 388.975 54.5037 455.667 131.831C492.28 174.284 489.176 218.326 475.59 261.457L427.789 398.385C413.813 445.994 403.847 460.691 379.36 481.375C364.824 493.651 348.431 472.446 331.18 450.127C316.235 430.793 300.644 410.623 285.056 410.67C269.211 410.719 253.37 430.92 238.214 450.247C220.733 472.54 204.164 493.669 189.551 481.375C160.045 456.545 147.105 422.237 133.58 367.18C130.977 356.58 127.015 343.867 122.648 329.847C104.329 271.047 78.8462 189.251 116.222 143.872C162.377 87.8358 219.705 78.815 285.044 134.45L285.655 134.9ZM253.414 140.655C230.808 125.122 211.592 120.181 195.586 121.44C175.919 122.986 155.492 134.338 134.94 159.29C119.484 178.054 117.911 209.755 126.244 251.171C130.213 270.894 136.002 290.869 141.833 309.841C143.091 313.934 144.369 318.036 145.636 322.101C150.053 336.276 154.331 350.001 157.13 361.395C169.512 411.8 180.283 438.89 199.82 457.976C203.853 454.226 208.954 448.201 215.703 439.649C216.754 438.315 217.845 436.922 218.969 435.486C225.883 426.661 234.071 416.205 242.424 407.847C251.297 398.969 265.964 386.478 284.984 386.42C304.09 386.362 318.719 399.056 327.411 407.872C335.643 416.222 343.717 426.68 350.531 435.506C351.646 436.949 352.726 438.348 353.768 439.688C360.378 448.186 365.386 454.186 369.346 457.938C377.2 450.837 382.294 444.907 386.701 437.534C392.392 428.016 397.692 414.818 404.522 391.554C404.635 391.163 404.76 390.777 404.895 390.392L452.569 253.825C458.803 233.943 461.969 215.789 460.316 198.728C458.707 182.109 452.403 165.178 437.303 147.669C412.271 118.644 381.517 118.205 352.503 127.196C337.891 131.724 324.777 138.467 315.172 144.234C311.569 146.397 308.532 148.38 306.174 149.987L352.747 184.231C358.141 188.198 359.299 195.787 355.332 201.182C351.366 206.577 343.775 207.735 338.381 203.768L272.605 155.404C271.695 154.824 270.814 154.179 269.972 153.467L255.93 143.143C254.949 142.421 254.108 141.581 253.414 140.655ZM195.568 461.294L195.615 461.271C195.582 461.287 195.568 461.294 195.568 461.294Z" fill="#6D309D"/>
</g>
<defs>
<clipPath id="clip0_6_34">
<rect width="582" height="582" fill="white"/>
</clipPath>
</defs>
</svg>
