<!DOCTYPE svg PUBLIC "-//W3C//DTD SVG 1.1//EN" "http://www.w3.org/Graphics/SVG/1.1/DTD/svg11.dtd">
<!-- Uploaded to: SVG Repo, www.svgrepo.com, Transformed by: SVG Repo Mixer Tools -->
<svg fill="#b08ece" width="800px" height="800px" viewBox="0 0 256 256" id="Flat" xmlns="http://www.w3.org/2000/svg" stroke="#b08ece" stroke-width="5.12">
<g id="SVGRepo_bgCarrier" stroke-width="0"/>
<g id="SVGRepo_tracerCarrier" stroke-linecap="round" stroke-linejoin="round" stroke="#CCCCCC" stroke-width="0.512"/>
<g id="SVGRepo_iconCarrier"> <path d="M162.27246,117.21094A39.99047,39.99047,0,0,0,140,44V24a4,4,0,0,0-8,0V43.99951l-24-.002V24a4,4,0,0,0-8,0V43.99658l-20.00586-.00146h-16a4,4,0,0,0,0,8h12v144h-12a4,4,0,0,0,0,8h16L100,203.99658V224a4,4,0,0,0,8,0V203.99707l24,.00147V224a4,4,0,0,0,8,0V203.999L152,204a44.00279,44.00279,0,0,0,10.27246-86.78906ZM172,84a32.03667,32.03667,0,0,1-32,32H83.99414V51.99512l19.97461.002c.01074,0,.02051.00293.03125.00293s.02051-.00293.03125-.00293l31.96533.00244L136,52l.00342-.00049L140,52A32.03667,32.03667,0,0,1,172,84ZM152,196l-68.00586-.00488V124H152a36,36,0,0,1,0,72Z"/> </g>
</svg>